<svg width="193" height="54" viewBox="0 0 193 54" fill="none" xmlns="http://www.w3.org/2000/svg">
<path fill-rule="evenodd" clip-rule="evenodd" d="M24.9512 1.36844C24.7688 1.30762 24.6623 1.24684 24.6319 1.18602C24.5863 1.09479 24.6319 0.957972 24.7232 0.866743C24.8448 0.714694 25.0577 0.577784 25.3618 0.456145C25.5138 0.395326 25.6811 0.334551 25.8635 0.273732C26.046 0.243322 26.2284 0.197685 26.4109 0.136866C26.5325 0.136866 26.639 0.121728 26.7302 0.0913181C26.8214 0.0913181 26.9278 0.0760687 27.0495 0.0456591H27.3688C27.3992 0.0152494 27.4448 0 27.5056 0H27.5968H27.6425H27.7793H27.8706H28.0986H28.5091C28.6612 0 28.8132 0.0152494 28.9653 0.0456591C29.1173 0.0456591 29.2694 0.0609084 29.4214 0.0913181C29.6951 0.121728 29.9688 0.167253 30.2425 0.228073C30.5162 0.258482 30.7746 0.319368 31.0179 0.410597C31.2308 0.471417 31.4133 0.532192 31.5653 0.593011C31.7478 0.68424 31.8846 0.760264 31.9759 0.821083C32.2039 0.957927 32.2495 1.04913 32.2495 1.14036C32.2191 1.23159 32.0975 1.30762 31.8846 1.36844C31.7565 1.39406 31.5852 1.40532 31.3869 1.41835C31.2322 1.42852 31.061 1.43976 30.8811 1.45975H30.1969H29.4214H29.0565C28.9045 1.49016 28.7676 1.5053 28.646 1.5053H28.281H28.053H27.9618H27.8706H27.8249H27.7337H27.5968C27.5056 1.53571 27.4144 1.55096 27.3232 1.55096H27.0495H26.7758H26.2284C26.0459 1.52055 25.8787 1.5053 25.7266 1.5053C25.3921 1.47489 25.1337 1.42925 24.9512 1.36844ZM43.1515 4.74398C43.9725 5.56504 44.6111 6.93347 44.2462 7.48085C43.9629 7.8585 43.1803 7.84533 42.3178 7.83081C41.9301 7.82429 41.5263 7.8175 41.1444 7.84578C39.9585 7.98263 39.0006 8.48437 38.59 9.30543C38.1795 10.1721 38.3619 11.4037 38.6812 12.4072C39.0462 13.4564 39.5935 14.323 40.2777 15.1441C40.962 15.9652 41.783 16.7406 42.7409 17.1511C43.306 17.4054 43.9409 17.5197 44.5809 17.6349C44.9743 17.7057 45.3695 17.7768 45.7515 17.881C46.8006 18.1547 47.7129 18.702 48.4428 19.4775C49.127 20.2529 49.5831 21.2108 49.8112 22.3056C49.886 22.6496 49.9362 23.0132 49.9861 23.3739C50.0883 24.1133 50.1888 24.8405 50.4954 25.3617C50.7952 25.825 51.274 26.1417 51.7665 26.4675C52.0985 26.6871 52.4367 26.9108 52.7305 27.1863C53.4147 27.8705 53.8253 28.9197 53.9621 29.9688C54.1446 31.018 54.0077 32.067 53.6884 33.1162C53.3691 34.1197 52.8217 35.0776 52.1831 35.7618C51.841 36.104 51.4647 36.3776 51.0884 36.6513L51.0883 36.6513C50.712 36.925 50.3358 37.1987 49.9937 37.5408C49.2638 38.2706 48.7164 39.2742 48.3971 40.3233C48.2634 40.7437 48.1777 41.1721 48.093 41.595L48.093 41.5951L48.093 41.5951C47.9756 42.1818 47.8602 42.7581 47.6217 43.2882C47.2111 44.2005 46.4357 44.9759 45.5234 45.6145C45.3174 45.7663 45.1063 45.9129 44.8955 46.0593L44.8952 46.0595C44.2193 46.5289 43.547 46.9958 43.0602 47.6216C42.7409 48.0093 42.5014 48.4655 42.262 48.9216L42.2619 48.9217C42.0225 49.3778 41.783 49.8339 41.4637 50.2216C40.7795 51.0427 39.8216 51.5444 38.8637 52.0005C38.6599 52.0839 38.4598 52.1673 38.2616 52.2499L38.2596 52.2508L38.2587 52.2511L38.2587 52.2512L38.2584 52.2513L38.2583 52.2513C37.4818 52.575 36.7336 52.8868 35.8988 53.1409C34.8496 53.5058 33.7549 53.7795 32.797 53.5058C32.2753 53.3568 31.8212 53.0319 31.3686 52.7079C30.99 52.437 30.6124 52.1667 30.197 52.0005C29.4444 51.7139 28.5793 51.7369 27.7122 51.7599C27.4755 51.7662 27.2387 51.7725 27.0039 51.7725C25.9092 51.7725 24.86 51.6813 23.9021 51.2251C22.9898 50.7234 22.2144 49.8567 21.9863 48.8988C21.7583 47.8953 22.1232 46.7549 22.853 46.1163C23.6285 45.4777 24.7688 45.2953 25.8636 45.2497C26.9583 45.2497 28.053 45.3408 28.9653 45.7514C29.9232 46.1619 30.7443 46.8918 31.3373 47.7585C31.5027 48.013 31.6504 48.2781 31.7952 48.538C32.1694 49.2099 32.5243 49.8471 33.1163 50.176C33.8917 50.6321 35.1233 50.4041 36.218 50.1304C37.3584 49.8567 38.3163 49.4918 39.0918 48.8532C39.8672 48.2146 40.4602 47.3023 40.7795 46.3444C40.9173 45.9654 41.0291 45.5863 41.1395 45.2122C41.3213 44.5959 41.4992 43.9928 41.783 43.4251C42.2848 42.5128 43.0602 41.6917 43.9269 41.0531C44.3248 40.7599 44.7322 40.4956 45.1361 40.2336L45.1361 40.2336L45.1362 40.2336L45.1363 40.2335L45.1363 40.2335L45.1364 40.2334C45.6122 39.9248 46.0829 39.6195 46.5269 39.2741C47.348 38.6355 48.0322 37.8145 48.5796 36.9022C49.1269 35.9899 49.4919 35.032 49.7199 33.9373C49.9936 32.8881 50.1305 31.7477 49.6743 30.8355C49.2638 29.9232 48.2603 29.2389 47.2568 29.2389C46.2533 29.2389 45.2954 29.9231 44.5199 30.6986C43.6989 31.474 43.0602 32.2951 42.6497 33.253C42.2391 34.1653 42.0111 35.2144 41.8286 36.2635C41.6462 37.3127 41.4637 38.3619 41.0532 39.3198C40.6426 40.2777 39.9584 41.0988 39.1374 41.8286C38.3163 42.5128 37.404 43.1057 36.4005 43.3338C35.397 43.6075 34.2566 43.5162 33.2987 43.1057C32.2952 42.7408 31.4285 42.011 30.9268 41.0987C30.6563 40.5578 30.4981 39.9526 30.338 39.3404C30.2282 38.9202 30.1174 38.4966 29.9689 38.0881C29.5583 37.1302 28.8285 36.3092 27.9618 35.6706C27.1408 35.032 26.1829 34.5303 25.1338 34.3022C24.1302 34.0741 23.0355 34.1197 21.9863 34.3934C20.9828 34.6671 20.0249 35.1233 19.2495 35.8987C18.5196 36.6742 18.0179 37.7233 17.9722 38.7268C17.9722 39.2613 18.1017 39.7829 18.2364 40.3259C18.3547 40.8025 18.477 41.2956 18.5196 41.8286C18.6109 42.9233 18.2916 44.2005 17.4705 44.611C17.025 44.8585 16.4317 44.8509 15.8292 44.8431C15.3213 44.8365 14.8068 44.8299 14.3687 44.9759C13.4564 45.2952 12.9547 46.2531 13.1371 47.211C13.274 48.1689 14.095 49.0812 15.0073 49.7198C15.874 50.3128 16.8319 50.6321 17.881 50.9058C17.9679 50.9312 18.0556 50.9565 18.1438 50.982L18.144 50.982L18.1442 50.9821L18.1442 50.9821C19.1675 51.2776 20.2545 51.5915 20.8004 52.1374C21.439 52.6848 21.439 53.5059 20.846 53.6427C20.2665 53.7669 19.1611 53.3652 18.1094 52.9831L18.1085 52.9828L18.0985 52.9791C17.9949 52.9415 17.8918 52.904 17.7898 52.8673C17.5527 52.7852 17.323 52.7086 17.1009 52.6346L17.1007 52.6345L17.1007 52.6345L17.1006 52.6345L17.1006 52.6345C16.2116 52.3382 15.4452 52.0827 14.8248 51.6813C14.3736 51.3711 14.0096 50.9737 13.625 50.5538C13.3875 50.2945 13.1421 50.0267 12.8634 49.7655C12.4849 49.4343 12.045 49.1276 11.5947 48.8136L11.5947 48.8136L11.5947 48.8136L11.5946 48.8135C11.1767 48.5222 10.7498 48.2246 10.3546 47.8952C9.99897 47.5957 9.66634 47.2808 9.34414 46.9758L9.34402 46.9757L9.34389 46.9756L9.34379 46.9755L9.3437 46.9754L9.34365 46.9754C8.88092 46.5373 8.4397 46.1197 7.98265 45.797C7.63665 45.5324 7.26341 45.3314 6.89534 45.1332L6.89531 45.1332C6.43849 44.8871 5.98963 44.6454 5.61072 44.2917C4.98685 43.7848 4.49631 42.9779 3.99663 42.156L3.99648 42.1557L3.99629 42.1554C3.91153 42.016 3.82651 41.8762 3.74054 41.7373C3.64178 41.5853 3.54176 41.4347 3.44216 41.2846C2.94369 40.5338 2.45576 39.7988 2.18963 39.0004C1.96556 38.3282 1.89873 37.5886 1.83151 36.8447C1.80294 36.5286 1.7743 36.2116 1.73349 35.8987C1.59664 34.8496 1.36856 33.846 1.09487 32.7969C0.866801 31.7478 0.684376 30.6986 0.729991 29.6494C0.775605 28.6459 1.14051 27.5968 1.68788 26.7301C1.94983 26.3473 2.25627 25.9912 2.56004 25.6382L2.56005 25.6381C2.94394 25.192 3.32356 24.7508 3.60367 24.267C4.10543 23.3547 4.28791 22.2599 4.42475 21.2107C4.46327 20.9155 4.49456 20.6202 4.52573 20.326C4.60534 19.5747 4.68424 18.8301 4.8809 18.109C5.15459 17.0599 5.65634 16.1019 6.29494 15.2809C6.97916 14.4598 7.8002 13.8213 8.66687 13.1827C9.53355 12.5441 10.4002 11.9054 11.1301 11.2212C11.8599 10.4914 12.4985 9.76151 13.0002 8.66676C13.5476 7.61762 13.9582 6.20357 13.5021 5.70181C13.0459 5.15444 11.7687 5.51942 10.5827 5.88434C10.3602 5.95554 10.1429 6.02847 9.93763 6.09738C9.0907 6.38167 8.44774 6.59749 8.48446 6.34048C8.53007 6.02118 9.6704 4.97207 10.6739 4.19662C11.6774 3.42118 12.5897 2.87371 13.4108 2.73687C13.9256 2.6285 14.3921 2.66496 14.8772 2.70287C15.2088 2.72879 15.5492 2.75539 15.9196 2.73687C16.6834 2.73687 17.5752 2.54505 18.4878 2.34875C18.6652 2.3106 18.8433 2.27229 19.0214 2.23518C20.1618 1.96149 21.3021 1.7334 22.1688 2.09831C22.9116 2.41108 23.4534 3.126 23.9952 3.84091L23.9952 3.84094C24.0855 3.96012 24.1758 4.07931 24.2671 4.19662C24.9057 5.0633 25.6355 5.83872 26.5022 6.34048C27.4145 6.84224 28.5092 7.07034 29.5583 7.16157C30.6075 7.29841 31.5654 7.25277 32.7057 7.0247C33.8005 6.75101 35.0777 6.24928 35.2601 5.33699C35.3498 4.88889 35.1753 4.33073 35.0069 3.79225C34.8325 3.23443 34.6647 2.69774 34.804 2.32638C35.0777 1.59655 36.4917 1.45969 37.6321 1.73337C38.5116 1.90927 39.174 2.30228 39.8496 2.70306L39.8497 2.70309L39.8501 2.70337L39.8506 2.70362C40.0506 2.82231 40.2519 2.94167 40.4602 3.05626C40.6119 3.13209 40.7648 3.20539 40.9181 3.2789C41.6872 3.64758 42.4669 4.02137 43.1515 4.74398ZM18.4283 20.8915C19.0669 20.8915 19.7055 20.8459 20.3441 20.6634C20.9827 20.5113 21.5909 20.2833 22.1687 19.9792C22.7465 19.6447 23.2787 19.2494 23.7652 18.7933C24.2518 18.3675 24.6623 17.8658 24.9968 17.288C25.3617 16.7406 25.6354 16.1475 25.8179 15.5089C25.9547 14.9159 26.046 14.2318 26.046 13.5931C26.0003 12.9545 25.8178 12.2703 25.5442 11.6774C25.2705 11.13 24.8599 10.5827 24.4038 10.1265C23.902 9.71598 23.3547 9.35098 22.7617 9.1229C22.1231 8.89483 21.4845 8.75803 20.8459 8.71242C20.1769 8.71242 19.523 8.78844 18.8844 8.94049C18.2458 9.12295 17.6376 9.38141 17.0599 9.71591C16.5125 10.02 15.9955 10.4001 15.509 10.8563C15.0528 11.3124 14.6423 11.8295 14.2774 12.4072C13.9429 12.9546 13.6692 13.5476 13.4563 14.1862C13.2738 14.7791 13.1826 15.4633 13.1826 16.1019C13.2282 16.7405 13.4107 17.3792 13.6844 17.9722C13.9581 18.5652 14.323 19.1125 14.8247 19.5687C15.3265 19.9792 15.8739 20.2985 16.5125 20.5265C17.1055 20.7546 17.7441 20.8459 18.4283 20.8915ZM32.4776 18.7933C33.1162 18.5196 33.846 18.4284 34.5302 18.4284C35.26 18.3828 35.9442 18.5196 36.6285 18.7477C37.3127 18.9757 37.9513 19.2951 38.4986 19.7056C39.046 20.1161 39.5478 20.6178 39.9583 21.2108C40.3689 21.7582 40.7338 22.3968 40.9162 23.0354C41.1443 23.7196 41.2811 24.4495 41.2811 25.1337C41.2811 25.8179 41.1443 26.5478 40.9162 27.232C40.7338 27.8706 40.4145 28.5091 40.0039 29.1021C39.639 29.6951 39.1829 30.2425 38.6355 30.6986C38.0881 31.1548 37.4951 31.5197 36.8109 31.7478C36.1723 32.0215 35.4881 32.1583 34.7583 32.1583C34.0741 32.2039 33.3442 32.0671 32.7056 31.8847C32.0214 31.6566 31.3828 31.2917 30.8354 30.8812C30.2881 30.4706 29.7863 29.9232 29.3757 29.3759C28.9804 28.7677 28.6763 28.1291 28.4635 27.4601C28.2354 26.8215 28.0986 26.0916 28.0986 25.4074C28.0986 24.6776 28.1898 23.9933 28.3722 23.3091C28.5547 22.6249 28.874 21.9863 29.2389 21.3933C29.6495 20.8003 30.1056 20.2985 30.653 19.8424C31.2003 19.3862 31.8389 19.0214 32.4776 18.7933ZM5.4737 28.9196C5.4737 29.467 5.56493 30.0599 5.70177 30.5617C5.82341 31.1091 6.02109 31.6412 6.29478 32.1582C6.56847 32.6448 6.90295 33.1009 7.29828 33.5266C7.66319 33.9828 8.07376 34.3477 8.5299 34.667C9.03166 34.9407 9.53343 35.1688 10.0808 35.3057C10.6738 35.4425 11.2211 35.4425 11.7685 35.3512C12.3159 35.2144 12.8633 34.9864 13.3194 34.6215C13.7756 34.3022 14.1405 33.846 14.4142 33.3442C14.6879 32.8881 14.8703 32.3408 14.9615 31.7934C15.0832 31.2156 15.144 30.6529 15.144 30.1056C15.1136 29.5278 15.0224 28.9652 14.8703 28.4178C14.7183 27.8705 14.5206 27.3383 14.2773 26.8213C14.034 26.3044 13.7299 25.8331 13.365 25.4074C13.0001 24.9512 12.5896 24.5863 12.1335 24.267C11.6773 23.9477 11.1299 23.7195 10.5826 23.6283C10.0352 23.5371 9.44216 23.5371 8.89479 23.674C8.34741 23.8108 7.84569 24.0844 7.38954 24.4037C6.9334 24.7687 6.56848 25.1792 6.24918 25.681C5.97549 26.1371 5.74741 26.6846 5.61056 27.2319C5.51933 27.7793 5.4737 28.3267 5.4737 28.9196ZM8.30352 43.4731C8.24147 43.4719 8.17983 43.4706 8.11945 43.4706C8.05856 43.4639 7.99867 43.4581 7.93993 43.4524H7.93989L7.93981 43.4524C7.6026 43.42 7.30336 43.3912 7.07029 43.197C6.79661 43.0145 6.56853 42.6952 6.38608 42.3759C6.33387 42.3028 6.28406 42.2321 6.23554 42.1633C6.0721 41.9313 5.92338 41.7202 5.74752 41.5092C5.56506 41.2051 5.36737 40.901 5.15451 40.5969C4.97205 40.2928 4.78961 39.9736 4.60715 39.639C4.4247 39.3349 4.2574 39.0156 4.10535 38.6811C3.96851 38.3618 3.8317 37.9969 3.74047 37.6776C3.64924 37.3127 3.6036 36.9478 3.6036 36.5829L3.61055 36.5268C3.6543 36.1724 3.70641 35.7503 3.92294 35.5337C4.15101 35.3057 4.56152 35.3056 4.92643 35.3969C5.24573 35.4881 5.56504 35.7162 5.83872 35.9442L6.65981 36.6741L7.38963 37.4952C7.6025 37.7689 7.81537 38.0577 8.02824 38.3618C8.24111 38.6659 8.42354 38.9853 8.57559 39.3198C8.75805 39.6239 8.92529 39.9431 9.07734 40.2776C9.22939 40.6121 9.35105 40.9466 9.44228 41.2811C9.57912 41.646 9.62471 42.011 9.57909 42.3759C9.57909 42.7408 9.44229 43.1513 9.1686 43.3338C8.94021 43.486 8.61649 43.4795 8.30352 43.4731ZM0.957949 18.0178C0.745082 18.1698 0.577784 18.2307 0.456145 18.2003C0.319302 18.1547 0.182491 18.0178 0.0912624 17.7897C0.0456479 17.5616 0 17.1968 0 16.7407C0.0304097 16.5278 0.0608528 16.2997 0.0912624 16.0564C0.152082 15.8132 0.228106 15.5546 0.319335 15.2809C0.349745 15.1593 0.395326 15.0377 0.456145 14.9161C0.486555 14.7944 0.532192 14.6575 0.593011 14.5055C0.65383 14.3838 0.699467 14.2622 0.729877 14.1405C0.760286 14.0797 0.790674 14.0342 0.821083 14.0038C0.851493 13.9734 0.866687 13.9429 0.866687 13.9125C0.897097 13.8821 0.91229 13.8517 0.91229 13.8213C0.9427 13.7909 0.973143 13.7452 1.00355 13.6844C1.03396 13.654 1.04916 13.6236 1.04916 13.5932C1.10998 13.502 1.15561 13.4108 1.18602 13.3196C1.27725 13.1675 1.38366 13.0155 1.5053 12.8634C1.59653 12.7114 1.70294 12.5593 1.82458 12.4073L2.18952 11.9511C2.40239 11.647 2.64565 11.3733 2.91934 11.1301C3.16262 10.8868 3.40588 10.6738 3.64916 10.4914C3.86203 10.3089 4.07491 10.1569 4.28778 10.0352C4.50064 9.9136 4.68313 9.83758 4.83518 9.80717C5.15448 9.71594 5.33691 9.71594 5.42814 9.80717C5.51937 9.92881 5.53456 10.1265 5.47374 10.4002C5.38251 10.7195 5.20008 11.1301 4.92639 11.5862C4.80475 11.8295 4.6527 12.0879 4.47024 12.3616C4.3182 12.6353 4.16615 12.9242 4.0141 13.2283C3.92287 13.3499 3.83165 13.4868 3.74042 13.6389C3.6796 13.7909 3.60358 13.9429 3.51235 14.095C3.42112 14.2166 3.3451 14.3534 3.28428 14.5055C3.25387 14.5967 3.20823 14.6727 3.14741 14.7336C3.14741 14.764 3.13222 14.7944 3.10181 14.8248C3.0714 14.8552 3.05621 14.9008 3.05621 14.9616C3.0258 14.9616 3.0106 14.9769 3.0106 15.0073C2.98019 15.0377 2.96494 15.0681 2.96494 15.0985C2.93453 15.1289 2.90415 15.1745 2.87374 15.2354C2.81292 15.357 2.75209 15.4634 2.69127 15.5546C2.63045 15.6459 2.56962 15.7523 2.5088 15.8739C2.47839 15.9651 2.41761 16.0716 2.32638 16.1932C2.20475 16.3757 2.08308 16.5733 1.96145 16.7862C1.83981 16.9687 1.71815 17.136 1.59651 17.288C1.36844 17.6529 1.14041 17.8809 0.957949 18.0178ZM47.3935 10.9475C47.3631 10.6738 47.4088 10.5066 47.5304 10.4458C47.6672 10.3546 47.8497 10.3545 48.169 10.4914C48.4883 10.6282 48.8988 10.902 49.3094 11.2669C49.5526 11.4494 49.7959 11.6774 50.0392 11.9511C50.2521 12.1944 50.4801 12.4529 50.7234 12.7265C50.845 12.8482 50.9515 12.985 51.0427 13.137C51.1643 13.2891 51.2708 13.4411 51.362 13.5932C51.4532 13.7148 51.5597 13.8517 51.6813 14.0038C51.7117 14.095 51.7573 14.171 51.8182 14.2318C51.8182 14.2623 51.8334 14.2926 51.8638 14.3231C51.8942 14.3535 51.9094 14.3991 51.9094 14.4599C51.9398 14.4903 51.9702 14.5359 52.0006 14.5967C52.031 14.6575 52.0614 14.7031 52.0918 14.7335C52.1527 14.8552 52.2135 14.9616 52.2743 15.0528C52.396 15.2657 52.5024 15.4786 52.5936 15.6915C52.7152 15.9044 52.8216 16.1172 52.9129 16.33L53.1866 16.9687C53.3386 17.3945 53.4754 17.8201 53.5971 18.2458C53.7187 18.6412 53.7948 19.0061 53.8252 19.3406C53.886 19.6752 53.9164 19.9792 53.9164 20.2529C53.9164 20.4962 53.9012 20.6939 53.8708 20.8459C53.7796 21.1653 53.6427 21.3021 53.4603 21.3021C53.2778 21.3021 53.0497 21.1653 52.8217 20.8459C52.548 20.5266 52.2287 20.0248 51.8638 19.4319C51.6813 19.1278 51.4988 18.8084 51.3164 18.4739L50.6778 17.3792C50.5866 17.1967 50.4801 17.0143 50.3585 16.8319C50.2672 16.6494 50.1608 16.4517 50.0392 16.2388C49.948 16.0564 49.8415 15.8739 49.7199 15.6915C49.6894 15.6003 49.6439 15.5242 49.583 15.4634C49.5526 15.4026 49.5222 15.357 49.4918 15.3265C49.4614 15.2657 49.431 15.2201 49.4006 15.1897C49.4006 15.1593 49.3854 15.1289 49.355 15.0985C49.355 15.0681 49.3398 15.0377 49.3094 15.0073C49.279 14.9464 49.2333 14.8704 49.1725 14.7792L48.99 14.4143C48.8988 14.2622 48.8228 14.1254 48.762 14.0038C48.6707 13.8821 48.5947 13.7452 48.5339 13.5932C48.3818 13.3195 48.245 13.061 48.1233 12.8177C47.9713 12.5441 47.8497 12.3007 47.7585 12.0879C47.5304 11.6317 47.4391 11.2212 47.3935 10.9475Z" fill="white"/>
<g filter="url(#filter0_d_446_368)">
<path fill-rule="evenodd" clip-rule="evenodd" d="M74.444 25.8749C73.851 26.4223 72.9844 26.4223 72.3002 25.9661C71.7224 25.5404 71.023 25.3275 70.2019 25.3275C69.6849 25.3275 69.1832 25.4644 68.6966 25.7381C68.21 25.9813 67.9668 26.4071 67.9668 27.0153C67.9668 27.4714 68.1645 27.8059 68.5598 28.0188C68.9551 28.2317 69.472 28.4141 70.1106 28.5661C70.7492 28.7182 71.4183 28.8855 72.1177 29.068C72.8475 29.22 73.5317 29.4632 74.1703 29.7977C74.7785 30.1322 75.2955 30.5884 75.7212 31.1662C76.1166 31.7439 76.3143 32.5498 76.3143 33.5837C76.3143 34.496 76.1166 35.2715 75.7212 35.9101C75.3259 36.5487 74.8089 37.0657 74.1703 37.461C73.5317 37.8563 72.8171 38.13 72.0265 38.2821C71.2358 38.4645 70.43 38.5557 69.6089 38.5557C68.3925 38.5557 67.2826 38.3885 66.2791 38.054C65.9142 37.9019 65.5644 37.7346 65.2299 37.5522C64.272 36.9592 64.1352 35.6364 64.9562 34.9065L65.0018 34.8153C65.6404 34.2223 66.5528 34.2223 67.1914 34.7241C67.3738 34.8457 67.5714 34.9674 67.7843 35.089C68.3317 35.454 69.0159 35.6364 69.837 35.6364C70.1411 35.6364 70.4452 35.606 70.7493 35.5452C71.0229 35.4844 71.2967 35.378 71.5703 35.2259C71.844 35.0739 72.0569 34.8762 72.209 34.6329C72.361 34.42 72.437 34.1616 72.437 33.8575C72.437 33.3101 72.2393 32.9147 71.844 32.6715C71.4183 32.3978 70.9013 32.1849 70.2931 32.0329C69.6545 31.8808 68.9703 31.7288 68.2405 31.5768C67.5106 31.4247 66.8416 31.1966 66.2334 30.8925C65.5948 30.5884 65.0779 30.1474 64.6826 29.5696C64.2568 29.0223 64.0439 28.2469 64.0439 27.2434C64.0439 26.3919 64.2264 25.6468 64.5913 25.0082C64.9562 24.3696 65.4276 23.8527 66.0053 23.4573C66.5831 23.0316 67.2521 22.7275 68.0124 22.5451C68.7726 22.3322 69.5329 22.2258 70.2931 22.2258C71.327 22.2258 72.361 22.4082 73.3949 22.7731C73.6686 22.8644 73.9271 22.986 74.1703 23.1381C75.1739 23.6854 75.3107 25.0538 74.4897 25.8293L74.444 25.8749ZM79.8266 22.6363H80.1002C80.8757 22.6363 81.6055 23.138 81.8336 23.9135L84.7985 33.4925H84.8898L87.6266 23.959C87.8547 23.1836 88.5845 22.6363 89.4056 22.6363H90.8652C91.6863 22.6363 92.3705 23.138 92.5986 23.9135L95.5636 33.4925H95.6548L98.4829 23.959C98.711 23.1836 99.4408 22.6363 100.262 22.6363C101.493 22.6363 102.406 23.8679 101.995 25.0539L97.9355 36.9136C97.7074 37.6891 96.9776 38.1909 96.2022 38.1909H94.9706C94.1951 38.1909 93.5109 37.689 93.2372 36.9592L89.9986 27.5627H89.9074L87.0337 36.868C86.8056 37.6434 86.1214 38.1909 85.3003 38.1909H83.9319C83.1564 38.1909 82.4722 37.689 82.1985 36.9592L78.0932 25.0539C77.6827 23.8679 78.5493 22.6363 79.8266 22.6363ZM114.813 36.0469H114.722C114.144 36.9592 113.429 37.5979 112.578 37.9628C111.726 38.3581 110.784 38.5557 109.75 38.5557C109.02 38.5557 108.32 38.4645 107.651 38.2821C106.952 38.0692 106.344 37.7802 105.827 37.4153C105.31 37.02 104.884 36.5335 104.55 35.9557C104.215 35.3475 104.048 34.6633 104.048 33.903C104.048 33.0516 104.2 32.3369 104.504 31.7592C104.808 31.151 105.219 30.6492 105.736 30.2539C106.253 29.8585 106.846 29.5393 107.515 29.296C108.184 29.0527 108.868 28.8702 109.567 28.7486C110.297 28.6573 111.027 28.5813 111.757 28.5205C112.487 28.4901 113.186 28.4749 113.855 28.4749H114.402C114.63 28.4749 114.813 28.2924 114.813 28.0643C114.813 27.0912 114.478 26.3615 113.809 25.8749C113.14 25.3884 112.289 25.1451 111.255 25.1451C110.434 25.1451 109.674 25.2971 108.974 25.6012C108.609 25.7228 108.29 25.8901 108.016 26.103C107.423 26.4223 106.694 26.3311 106.192 25.8749C105.553 25.2363 105.644 24.096 106.42 23.5942C106.937 23.2597 107.499 23.0011 108.108 22.8187C109.263 22.4234 110.449 22.2258 111.666 22.2258C112.76 22.2258 113.688 22.3626 114.448 22.6363C115.208 22.8795 115.832 23.1989 116.318 23.5942C116.835 23.9591 117.215 24.4 117.459 24.917C117.732 25.434 117.93 25.9509 118.052 26.4678C118.173 26.9848 118.249 27.4866 118.28 27.9731C118.31 28.4597 118.325 28.8855 118.325 29.2504V36.4118C118.325 37.3697 117.504 38.1909 116.546 38.1909C115.588 38.1909 114.813 37.3697 114.813 36.4118V36.0469ZM114.585 31.668C114.585 31.4399 114.402 31.2574 114.174 31.2574H113.764C113.216 31.2574 112.608 31.2726 111.939 31.303C111.27 31.3334 110.647 31.4398 110.069 31.6223C109.461 31.7743 108.959 32.0177 108.564 32.3522C108.168 32.6563 107.971 33.082 107.971 33.6294C107.971 33.9943 108.047 34.2984 108.199 34.5417C108.351 34.785 108.564 34.9978 108.837 35.1803C109.081 35.3627 109.37 35.4844 109.704 35.5452C110.008 35.6364 110.327 35.6821 110.662 35.6821C112.03 35.6821 113.019 35.3627 113.627 34.7241C114.265 34.0855 114.585 33.2189 114.585 32.1241V31.668ZM124.438 22.6363C125.487 22.6363 126.353 23.503 126.353 24.5977V25.0994H126.445C126.87 24.2175 127.478 23.5182 128.269 23.0012C129.06 22.5146 129.972 22.2713 131.006 22.2713C131.249 22.2713 131.493 22.2866 131.736 22.317C132.146 22.4082 132.42 22.7731 132.42 23.1836V25.2363C132.42 25.738 131.964 26.103 131.462 26.0574C131.158 25.9965 130.854 25.9661 130.55 25.9661C129.638 25.9661 128.908 26.1333 128.36 26.4678C127.813 26.8023 127.387 27.1825 127.083 27.6082C126.809 28.0339 126.612 28.4597 126.49 28.8854C126.399 29.3416 126.353 29.6761 126.353 29.8889V36.2294C126.353 37.3242 125.487 38.1909 124.438 38.1909C123.343 38.1909 122.476 37.3242 122.476 36.2294V24.5977C122.476 23.503 123.343 22.6363 124.438 22.6363ZM137.346 22.6363C138.35 22.6363 139.171 23.503 139.171 24.5065V25.0994H139.262C139.597 24.3696 140.144 23.7159 140.904 23.1381C141.665 22.5603 142.699 22.2713 144.006 22.2713C145.587 22.2713 146.834 22.6818 147.747 23.5029C148.431 24.1415 149.48 24.1415 150.164 23.5029C150.407 23.29 150.681 23.1076 150.985 22.9555C151.806 22.4994 152.81 22.2713 153.996 22.2713C155.03 22.2713 155.896 22.4386 156.596 22.7731C157.295 23.138 157.873 23.6093 158.329 24.1871C158.785 24.7953 159.105 25.51 159.287 26.3311C159.469 27.1521 159.561 28.0188 159.561 28.9311V36.3663C159.561 37.3698 158.74 38.1909 157.736 38.1909H157.554C156.505 38.1909 155.684 37.3698 155.684 36.3663V29.3872C155.684 28.9007 155.638 28.4445 155.547 28.0188C155.455 27.5627 155.303 27.1673 155.09 26.8328C154.878 26.4983 154.589 26.2398 154.224 26.0574C153.859 25.8749 153.388 25.7836 152.81 25.7836C152.202 25.7836 151.685 25.8901 151.259 26.103C150.833 26.3159 150.499 26.62 150.255 27.0153C149.982 27.3802 149.784 27.8059 149.662 28.2924C149.541 28.779 149.48 29.2808 149.48 29.7977V36.3663C149.48 37.3698 148.659 38.1909 147.61 38.1909H147.427C146.424 38.1909 145.603 37.3698 145.603 36.3663V28.9311C145.603 27.958 145.405 27.1825 145.01 26.6047C144.584 26.0573 143.9 25.7836 142.957 25.7836C142.288 25.7836 141.741 25.8901 141.315 26.103C140.859 26.3159 140.494 26.6047 140.22 26.9696C139.916 27.3346 139.703 27.7451 139.582 28.2012C139.46 28.6878 139.384 29.1895 139.353 29.7065V36.3663C139.353 37.3698 138.532 38.1909 137.529 38.1909H137.346C136.297 38.1909 135.476 37.3698 135.476 36.3663V24.5065C135.476 23.503 136.297 22.6363 137.346 22.6363ZM165.81 22.6363C166.905 22.6363 167.771 23.503 167.771 24.5977V36.2294C167.771 37.3242 166.905 38.1909 165.81 38.1909C164.761 38.1909 163.894 37.3242 163.894 36.2294V24.5977C163.894 23.503 164.761 22.6363 165.81 22.6363ZM163.347 17.3906C163.347 16.752 163.575 16.2046 164.031 15.7484C164.487 15.2923 165.08 15.0642 165.81 15.0642C166.509 15.0642 167.102 15.2771 167.589 15.7029C168.075 16.159 168.319 16.7216 168.319 17.3906C168.319 18.0596 168.075 18.607 167.589 19.0328C167.102 19.4889 166.509 19.717 165.81 19.717C165.08 19.717 164.487 19.4889 164.031 19.0328C163.575 18.5462 163.347 17.9988 163.347 17.3906ZM171.466 30.4364C171.466 29.1896 171.679 28.0644 172.105 27.0608C172.561 26.0573 173.169 25.2059 173.929 24.5065C174.659 23.7767 175.556 23.2293 176.621 22.8643C177.654 22.469 178.749 22.2713 179.905 22.2713C181.06 22.2713 182.155 22.469 183.189 22.8643C184.223 23.2293 185.12 23.7767 185.88 24.5065C186.641 25.2059 187.249 26.0573 187.705 27.0608C188.131 28.0644 188.343 29.1896 188.343 30.4364C188.343 31.6528 188.131 32.7626 187.705 33.7662C187.249 34.7697 186.641 35.6364 185.88 36.3663C185.12 37.0657 184.223 37.613 183.189 38.0083C182.155 38.4037 181.06 38.6013 179.905 38.6013C178.749 38.6013 177.654 38.4037 176.621 38.0083C175.556 37.613 174.659 37.0657 173.929 36.3663C173.169 35.6364 172.561 34.7697 172.105 33.7662C171.679 32.7626 171.466 31.6528 171.466 30.4364ZM175.343 30.4364C175.343 31.0446 175.45 31.6223 175.663 32.1697C175.845 32.717 176.134 33.2188 176.529 33.675C176.955 34.1007 177.442 34.4352 177.989 34.6784C178.536 34.9521 179.175 35.089 179.905 35.089C180.604 35.089 181.243 34.9521 181.821 34.6784C182.368 34.4352 182.839 34.1007 183.235 33.675C183.63 33.2188 183.934 32.717 184.147 32.1697C184.36 31.6223 184.466 31.0446 184.466 30.4364C184.466 29.8282 184.36 29.2351 184.147 28.6574C183.934 28.11 183.63 27.6234 183.235 27.1977C182.839 26.772 182.368 26.4222 181.821 26.1486C181.243 25.9053 180.604 25.7836 179.905 25.7836C179.175 25.7836 178.536 25.9053 177.989 26.1486C177.442 26.4222 176.955 26.772 176.529 27.1977C176.134 27.6234 175.845 28.11 175.663 28.6574C175.45 29.2351 175.343 29.8282 175.343 30.4364Z" fill="white"/>
</g>
<defs>
<filter id="filter0_d_446_368" x="60.0439" y="15.0642" width="132.299" height="31.5371" filterUnits="userSpaceOnUse" color-interpolation-filters="sRGB">
<feFlood flood-opacity="0" result="BackgroundImageFix"/>
<feColorMatrix in="SourceAlpha" type="matrix" values="0 0 0 0 0 0 0 0 0 0 0 0 0 0 0 0 0 0 127 0" result="hardAlpha"/>
<feOffset dy="4"/>
<feGaussianBlur stdDeviation="2"/>
<feComposite in2="hardAlpha" operator="out"/>
<feColorMatrix type="matrix" values="0 0 0 0 0 0 0 0 0 0 0 0 0 0 0 0 0 0 0.25 0"/>
<feBlend mode="normal" in2="BackgroundImageFix" result="effect1_dropShadow_446_368"/>
<feBlend mode="normal" in="SourceGraphic" in2="effect1_dropShadow_446_368" result="shape"/>
</filter>
</defs>
</svg>
